# File created by Blade
# Date/Time:  Tue Sep 30 19:06:18 2014
#---------------------------------------------------------
:version 1.10
:name HOM
:units
  mass 1.0
  length 1.000000
  angle deg
:documentation
     Acclaim Skeleton File
:root
   axis xyz
   order TX TY TZ RX RY RZ
   position 0.000000 0.000000 0.000000
   orientation 0 0 0
:bonedata
   begin
      id 1
      name Spine_dum
      direction 0.000000 1.000000 0.000000
      length 7.508948
      axis 0.0 0.0 0.0 xyz
   end
   begin
      id 2
      name LeftUpLeg_dum
      direction 1.000000 0.000000 0.000000
      length 3.000560
      axis 0.0 0.0 0.0 xyz
   end
   begin
      id 3
      name RightUpLeg_dum
      direction -1.000000 0.000000 0.000000
      length 3.000560
      axis 0.0 0.0 0.0 xyz
   end
   begin
      id 4
      name Spine
      direction 0.000000 1.000000 0.000000
      length 0.000000
      axis 0.0 0.0 0.0 xyz
      dof rx ry rz
   end
   begin
      id 5
      name Spine_dum1
      direction 0.000000 1.000000 0.000000
      length 13.861154
      axis 0.0 0.0 0.0 xyz
   end
   begin
      id 6
      name Spine_dum2
      direction 0.000000 1.000000 0.000000
      length 8.204781
      axis 0.0 0.0 0.0 xyz
   end
   begin
      id 7
      name Spine_dum3
      direction 0.000000 1.000000 0.000000
      length 8.204781
      axis 0.0 0.0 0.0 xyz
   end
   begin
      id 8
      name Head
      direction 0.000000 1.000000 0.000000
      length 4.527550
      axis 0.0 0.0 0.0 xyz
      dof rx ry rz
   end
   begin
      id 9
      name LeftShoulder
      direction 1.000000 0.000000 0.000000
      length 6.635956
      axis 0.0 0.0 -90.0 xyz
      dof rx ry rz
   end
   begin
      id 10
      name LeftArm
      direction 1.000000 0.000000 0.000000
      length 10.274218
      axis 0.0 0.0 -90.0 xyz
      dof rx ry rz
   end
   begin
      id 11
      name LeftForeArm
      direction 1.000000 0.000000 0.000000
      length 8.522147
      axis 0.0 0.0 -90.0 xyz
      dof ry rz rx
   end
   begin
      id 12
      name LeftHand
      direction 0.000000 0.000000 0.000000
      length 0.000000
      axis 0.0 0.0 -90.0 xyz
      dof rx ry rz
   end
   begin
      id 13
      name LeftHand_dum1
      direction 0.000000 0.000000 0.000000
      length 0.000000
      axis 0.0 0.0 -90.0 xyz
   end
   begin
      id 14
      name LeftHand_dum2
      direction 1.000000 0.000000 0.000000
      length 3.937000
      axis 0.0 0.0 -90.0 xyz
   end
   begin
      id 15
      name LeftHandThumb1
      direction 0.000000 0.000000 1.000000
      length 3.937000
      axis 0.0 0.0 -90.0 xyz
      dof rx rz ry
   end
   begin
      id 16
      name RightShoulder
      direction -1.000000 0.000000 0.000000
      length 6.635956
      axis 0.0 0.0 90.0 xyz
      dof rx ry rz
   end
   begin
      id 17
      name RightArm
      direction -1.000000 0.000000 0.000000
      length 10.274218
      axis 0.0 0.0 90.0 xyz
      dof rx ry rz
   end
   begin
      id 18
      name RightForeArm
      direction -1.000000 0.000000 0.000000
      length 8.522147
      axis 0.0 0.0 90.0 xyz
      dof ry rz rx
   end
   begin
      id 19
      name RightHand
      direction 0.000000 0.000000 0.000000
      length 0.000000
      axis 0.0 0.0 90.0 xyz
      dof rx ry rz
   end
   begin
      id 20
      name RightHand_dum1
      direction 0.000000 0.000000 0.000000
      length 0.000000
      axis 0.0 0.0 90.0 xyz
   end
   begin
      id 21
      name RightHand_dum2
      direction -1.000000 0.000000 0.000000
      length 3.937000
      axis 0.0 0.0 90.0 xyz
   end
   begin
      id 22
      name RightHandThumb1
      direction 0.000000 0.000000 1.000000
      length 3.937000
      axis 0.0 0.0 90.0 xyz
      dof rx rz ry
   end
   begin
      id 23
      name LeftUpLeg
      direction 0.000000 -1.000000 0.000000
      length 16.490845
      axis 0.0 0.0 0.0 xyz
      dof rx ry rz
   end
   begin
      id 24
      name LeftLeg
      direction 0.000000 -1.000000 0.000000
      length 14.556576
      axis 0.0 0.0 0.0 xyz
      dof rx ry rz
   end
   begin
      id 25
      name LeftFoot
      direction 0.000000 -0.258819 0.965926
      length 4.831116
      axis 15.0 0.0 0.0 xyz
      dof rx ry rz
   end
   begin
      id 26
      name LeftToeBase
      direction 0.000000 0.000000 1.000000
      length 2.952750
      axis 0.0 0.0 0.0 xyz
      dof rx ry rz
   end
   begin
      id 27
      name RightUpLeg
      direction 0.000000 -1.000000 0.000000
      length 16.490845
      axis 0.0 0.0 0.0 xyz
      dof rx ry rz
   end
   begin
      id 28
      name RightLeg
      direction 0.000000 -1.000000 0.000000
      length 14.556576
      axis 0.0 0.0 0.0 xyz
      dof rx ry rz
   end
   begin
      id 29
      name RightFoot
      direction 0.000000 -0.258819 0.965926
      length 4.831116
      axis 15.0 0.0 0.0 xyz
      dof rx ry rz
   end
   begin
      id 30
      name RightToeBase
      direction 0.000000 0.000000 1.000000
      length 2.952750
      axis 0.0 0.0 0.0 xyz
      dof rx ry rz
   end
:hierarchy
   begin
      root Spine_dum LeftUpLeg_dum RightUpLeg_dum
      Spine_dum Spine
      LeftUpLeg_dum LeftUpLeg
      RightUpLeg_dum RightUpLeg
      Spine Spine_dum1 Spine_dum2 Spine_dum3
      Spine_dum1 Head
      Spine_dum2 LeftShoulder
      Spine_dum3 RightShoulder
      LeftShoulder LeftArm
      LeftArm LeftForeArm
      LeftForeArm LeftHand
      LeftHand LeftHand_dum1 LeftHand_dum2
      LeftHand_dum1 LeftHandThumb1
      RightShoulder RightArm
      RightArm RightForeArm
      RightForeArm RightHand
      RightHand RightHand_dum1 RightHand_dum2
      RightHand_dum1 RightHandThumb1
      LeftUpLeg LeftLeg
      LeftLeg LeftFoot
      LeftFoot LeftToeBase
      RightUpLeg RightLeg
      RightLeg RightFoot
      RightFoot RightToeBase
   end

# File created by Blade
# Date/Time:  Thu Sep 25 18:39:44 2014
# Frame Rate: 120.000 fps
#------------------------------------------------------
:FULLY-SPECIFIED
:DEGREES
245
root -0.927418 33.079009 -2.535193 8.568594 5.723342 -1.125887
Spine -13.250564 6.137700 -0.072530
Head 14.114229 -13.071646 14.729131
LeftShoulder -8.049423 4.389234 32.088543
LeftArm 39.636808 -63.029961 -42.477602
LeftForeArm -12.073594 -0.000000 62.140010
LeftHand -18.341715 -0.000000 -8.162920
LeftHandThumb1 -26.253704 0.000000 33.147579
RightShoulder -104.235831 57.003706 -170.990306
RightArm -17.318819 21.894235 43.830433
RightForeArm 45.623261 -0.000000 156.952162
RightHand 9.319717 -0.000000 17.741824
RightHandThumb1 -24.326973 -0.000000 -32.862282
LeftUpLeg -2.353114 5.157404 2.288896
LeftLeg -1.351042 -0.000000 0.000000
LeftFoot -8.545800 0.369710 -10.712809
LeftToeBase 10.029795 -0.000000 -0.000000
RightUpLeg -2.992586 -7.554672 0.929290
RightLeg 1.504663 -0.000000 -0.000000
RightFoot -7.865312 -3.173942 0.690025
RightToeBase -0.561641 -0.000000 0.000000
246
root -0.923523 33.077520 -2.538148 8.602903 5.734651 -1.138752
Spine -13.289773 6.324619 -0.027995
Head 14.078458 -13.222139 14.495382
LeftShoulder -7.772342 4.031945 32.167407
LeftArm 39.150088 -62.934883 -41.928670
LeftForeArm -12.164326 -0.000000 62.282791
LeftHand -18.323493 -0.000000 -8.046457
LeftHandThumb1 -26.253704 0.000000 33.147579
RightShoulder -104.823843 56.807747 -171.916782
RightArm -17.815715 21.548843 43.805034
RightForeArm 45.742520 -0.000000 157.438466
RightHand 9.435036 0.000000 18.427046
RightHandThumb1 -24.326973 -0.000000 -32.862282
LeftUpLeg -2.394432 5.149385 2.293743
LeftLeg -1.350774 -0.000000 0.000000
LeftFoot -8.549914 0.356776 -10.741613
LeftToeBase 9.914033 -0.000000 -0.000000
RightUpLeg -3.028302 -7.553143 0.940055
RightLeg 1.497368 -0.000000 -0.000000
RightFoot -7.868503 -3.174450 0.710510
RightToeBase -0.515924 -0.000000 0.000000
247
root -0.920134 33.076532 -2.539981 8.618508 5.747717 -1.122180
Spine -13.284659 6.192415 -0.072082
Head 14.016664 -13.109567 14.702746
LeftShoulder -7.846103 4.019975 32.388322
LeftArm 39.296469 -62.950175 -42.060412
LeftForeArm -12.207151 -0.000000 62.541414
LeftHand -18.499849 -0.000000 -7.935312
LeftHandThumb1 -26.253704 0.000000 33.147579
RightShoulder -105.167723 56.817520 -172.033413
RightArm -17.625399 21.539182 43.969037
RightForeArm 45.820438 -0.000000 157.855259
RightHand 9.517795 -0.000000 19.123565
RightHandThumb1 -24.326973 -0.000000 -32.862282
LeftUpLeg -2.414612 5.153063 2.270490
LeftLeg -1.348831 -0.000000 0.000000
LeftFoot -8.547774 0.337395 -10.743329
LeftToeBase 9.945703 -0.000000 -0.000000
RightUpLeg -3.049295 -7.586655 0.925979
RightLeg 1.504145 -0.000000 -0.000000
RightFoot -7.867839 -3.172481 0.655181
RightToeBase -0.594120 -0.000000 0.000000
248
root -0.916959 33.076651 -2.541905 8.614813 5.758312 -1.109605
Spine -13.252881 6.110552 -0.105109
Head 13.972964 -12.977062 14.911704
LeftShoulder -7.964285 4.021808 32.559850
LeftArm 39.786724 -62.941009 -42.431613
LeftForeArm -12.245997 -0.000000 62.702518
LeftHand -18.452553 -0.000000 -7.962544
LeftHandThumb1 -26.253704 0.000000 33.147579
RightShoulder -105.585847 56.761184 -172.316904
RightArm -17.533799 21.377301 44.112271
RightForeArm 45.648336 -0.000000 158.240297
RightHand 9.646083 -0.000000 19.718972
RightHandThumb1 -24.326973 -0.000000 -32.862282
LeftUpLeg -2.412014 5.157693 2.252719
LeftLeg -1.353893 -0.000000 0.000000
LeftFoot -8.527298 0.321592 -10.735856
LeftToeBase 9.901928 -0.000000 -0.000000
RightUpLeg -3.053342 -7.605992 0.908503
RightLeg 1.524679 -0.000000 -0.000000
RightFoot -7.886457 -3.170312 0.666507
RightToeBase -0.579473 -0.000000 0.000000
249
root -0.914181 33.076850 -2.543353 8.605854 5.777600 -1.096332
Spine -13.220990 5.987225 -0.167289
Head 13.924053 -12.841048 15.235089
LeftShoulder -8.181245 4.063944 32.809915
LeftArm 40.578908 -62.884691 -43.139217
LeftForeArm -12.240404 -0.000000 62.863413
LeftHand -18.514390 -0.000000 -8.054311
LeftHandThumb1 -26.253704 0.000000 33.147579
RightShoulder -106.007230 56.743418 -172.517236
RightArm -17.404762 21.282347 44.273553
RightForeArm 45.661043 -0.000000 158.576655
RightHand 9.778453 -0.000000 20.383210
RightHandThumb1 -24.326973 -0.000000 -32.862282
LeftUpLeg -2.410828 5.159805 2.236562
LeftLeg -1.344964 -0.000000 0.000000
LeftFoot -8.525287 0.297029 -10.745445
LeftToeBase 9.951483 -0.000000 -0.000000
RightUpLeg -3.055458 -7.653522 0.893137
RightLeg 1.549364 -0.000000 -0.000000
RightFoot -7.903527 -3.140091 0.672949
RightToeBase -0.596652 -0.000000 0.000000
250
root -0.911835 33.076072 -2.544060 8.602930 5.796911 -1.080367
Spine -13.197967 5.870097 -0.238383
Head 13.869915 -12.763870 15.459055
LeftShoulder -8.314677 4.008552 33.040717
LeftArm 41.062616 -62.841691 -43.513324
LeftForeArm -12.316244 -0.000000 63.053358
LeftHand -18.464912 0.000000 -7.918818
LeftHandThumb1 -26.253704 0.000000 33.147579
RightShoulder -106.430828 56.734668 -172.751284
RightArm -17.314107 21.147848 44.407717
RightForeArm 45.634741 -0.000000 158.867148
RightHand 10.020353 -0.000000 21.004333
RightHandThumb1 -24.326973 -0.000000 -32.862282
LeftUpLeg -2.410055 5.168180 2.217063
LeftLeg -1.347348 -0.000000 0.000000
LeftFoot -8.512255 0.278807 -10.730418
LeftToeBase 9.894639 -0.000000 -0.000000
RightUpLeg -3.049142 -7.692212 0.876302
RightLeg 1.543345 -0.000000 -0.000000
RightFoot -7.923999 -3.163409 0.617760
RightToeBase -0.536118 -0.000000 0.000000
251
root -0.909967 33.075542 -2.544925 8.605596 5.821104 -1.066516
Spine -13.173917 5.771378 -0.291257
Head 13.819147 -12.669915 15.702238
LeftShoulder -8.442559 3.985016 33.222544
LeftArm 41.697023 -62.848041 -43.954181
LeftForeArm -12.418982 -0.000000 63.170079
LeftHand -18.566705 -0.000000 -7.944008
LeftHandThumb1 -26.253704 0.000000 33.147579
RightShoulder -106.964118 56.653675 -173.212530
RightArm -17.389125 21.021220 44.481154
RightForeArm 45.712274 -0.000000 159.137229
RightHand 10.174780 -0.000000 21.587606
RightHandThumb1 -24.326973 -0.000000 -32.862282
LeftUpLeg -2.412693 5.155513 2.202870
LeftLeg -1.353635 -0.000000 0.000000
LeftFoot -8.509693 0.263768 -10.749195
LeftToeBase 9.953522 -0.000000 -0.000000
RightUpLeg -3.051216 -7.735298 0.863448
RightLeg 1.546199 -0.000000 -0.000000
RightFoot -7.924142 -3.139802 0.612811
RightToeBase -0.602885 -0.000000 0.000000
252
root -0.907761 33.074719 -2.545621 8.610959 5.850268 -1.055227
Spine -13.148890 5.676952 -0.327094
Head 13.789945 -12.489387 15.988845
LeftShoulder -8.507921 3.750770 33.403037
LeftArm 41.939988 -62.788924 -44.036775
LeftForeArm -12.545145 -0.000000 63.300012
LeftHand -18.621211 0.000000 -8.043308
LeftHandThumb1 -26.253704 0.000000 33.147579
RightShoulder -107.421072 56.578621 -173.602469
RightArm -17.408255 20.853637 44.558144
RightForeArm 45.719158 -0.000000 159.375424
RightHand 10.410691 -0.000000 22.247407
RightHandThumb1 -24.326973 -0.000000 -32.862282
LeftUpLeg -2.418807 5.140004 2.188040
LeftLeg -1.355487 -0.000000 0.000000
LeftFoot -8.509927 0.251182 -10.716838
LeftToeBase 9.976309 -0.000000 -0.000000
RightUpLeg -3.052435 -7.746506 0.853735
RightLeg 1.549533 -0.000000 -0.000000
RightFoot -7.950193 -3.141920 0.634471
RightToeBase -0.538409 -0.000000 0.000000
253
root -0.907170 33.074874 -2.545658 8.609126 5.893669 -1.040782
Spine -13.122968 5.565911 -0.366996
Head 13.784957 -12.437386 16.080267
LeftShoulder -8.605169 3.662588 33.546068
LeftArm 42.420600 -62.797133 -44.248082
LeftForeArm -12.820119 0.000000 63.396184
LeftHand -18.655163 -0.000000 -8.083055
LeftHandThumb1 -26.253704 0.000000 33.147579
RightShoulder -107.928235 56.465301 -174.042752
RightArm -17.422976 20.684518 44.687547
RightForeArm 45.563825 -0.000000 159.584607
RightHand 10.447875 -0.000000 22.815613
RightHandThumb1 -24.326973 -0.000000 -32.862282
LeftUpLeg -2.419111 5.121433 2.180168
LeftLeg -1.363034 -0.000000 0.000000
LeftFoot -8.489999 0.228622 -10.716181
LeftToeBase 9.961840 -0.000000 -0.000000
RightUpLeg -3.042005 -7.783486 0.843901
RightLeg 1.542641 -0.000000 -0.000000
RightFoot -7.959214 -3.149759 0.641855
RightToeBase -0.528030 -0.000000 0.000000
